<?xml version="1.0" encoding="UTF-8"?>
<svg id="SVGDoc" width="26" height="26" xmlns="http://www.w3.org/2000/svg" version="1.1" xmlns:xlink="http://www.w3.org/1999/xlink" xmlns:avocode="https://avocode.com/" viewBox="0 0 26 26"><defs></defs><desc>Generated with Avocode.</desc><g><g><title>link</title><path d="M23.49911,11.24217l-1.92604,1.92766l-3.18707,3.18895c-0.15347,0.17033 -0.34092,0.32405 -0.51132,0.46031c-1.77258,1.39839 -4.12445,1.70498 -6.15269,0.90442c-0.75005,-0.29081 -1.46587,-0.75071 -2.07939,-1.36473l2.64175,-2.64389c0.95444,0.95552 2.50546,0.95552 3.45989,0l2.02824,-2.02861l3.08487,-3.08717c0.95432,-0.95552 0.95432,-2.50762 0,-3.4619c-0.95444,-0.95511 -2.50534,-0.95511 -3.46001,0l-2.45407,2.45611c-1.53408,-0.71623 -3.2896,-0.8367 -4.90871,-0.37598l4.72103,-4.7236c2.40337,-2.40501 6.34048,-2.40501 8.74352,0c2.42008,2.42079 2.42008,6.343 0,8.74843zM15.84644,18.84895l-4.61884,4.6725c-2.40303,2.40584 -6.34026,2.40584 -8.7434,0c-2.40326,-2.40459 -2.40326,-6.34384 0,-8.7476l5.11311,-5.11744c0.06809,-0.06772 0.15335,-0.1533 0.23849,-0.22185c1.78963,-1.60362 4.29508,-1.99538 6.42574,-1.14164c0.7497,0.28915 1.46564,0.74946 2.07916,1.36349l-2.64175,2.6443c-0.95432,-0.95552 -2.50546,-0.95552 -3.45978,0l-5.11322,5.11495c-0.95455,0.95594 -0.95455,2.50679 0,3.46273c0.95444,0.95511 2.50546,0.95511 3.45989,0l2.35199,-2.35432c2.01118,0.80264 2.55672,0.87036 4.9086,0.32488z" fill="#000000" fill-opacity="1"></path><path d="M23.49911,11.24217l-1.92604,1.92766l-3.18707,3.18895c-0.15347,0.17033 -0.34092,0.32405 -0.51132,0.46031c-1.77258,1.39839 -4.12445,1.70498 -6.15269,0.90442c-0.75005,-0.29081 -1.46587,-0.75071 -2.07939,-1.36473l2.64175,-2.64389c0.95444,0.95552 2.50546,0.95552 3.45989,0l2.02824,-2.02861l3.08487,-3.08717c0.95432,-0.95552 0.95432,-2.50762 0,-3.4619c-0.95444,-0.95511 -2.50534,-0.95511 -3.46001,0l-2.45407,2.45611c-1.53408,-0.71623 -3.2896,-0.8367 -4.90871,-0.37598l4.72103,-4.7236c2.40337,-2.40501 6.34048,-2.40501 8.74352,0c2.42008,2.42079 2.42008,6.343 0,8.74843zM15.84644,18.84895l-4.61884,4.6725c-2.40303,2.40584 -6.34026,2.40584 -8.7434,0c-2.40326,-2.40459 -2.40326,-6.34384 0,-8.7476l5.11311,-5.11744c0.06809,-0.06772 0.15335,-0.1533 0.23849,-0.22185c1.78963,-1.60362 4.29508,-1.99538 6.42574,-1.14164c0.7497,0.28915 1.46564,0.74946 2.07916,1.36349l-2.64175,2.6443c-0.95432,-0.95552 -2.50546,-0.95552 -3.45978,0l-5.11322,5.11495c-0.95455,0.95594 -0.95455,2.50679 0,3.46273c0.95444,0.95511 2.50546,0.95511 3.45989,0l2.35199,-2.35432c2.01118,0.80264 2.55672,0.87036 4.9086,0.32488z" fill="#c7b299" fill-opacity="1"></path></g></g></svg>