<?xml version="1.0" encoding="UTF-8"?>
<svg id="SVGDoc" width="26" height="25" xmlns="http://www.w3.org/2000/svg" version="1.1" xmlns:xlink="http://www.w3.org/1999/xlink" xmlns:avocode="https://avocode.com/" viewBox="0 0 26 25"><defs></defs><desc>Generated with Avocode.</desc><g><g><title>lupa</title><path d="M17.41655,7.84716c0.31849,0.64352 0.04715,1.41957 -0.60619,1.73365c-0.18562,0.08766 -0.38177,0.13045 -0.57587,0.13045c-0.48729,0 -0.9549,-0.26713 -1.18275,-0.72827c-0.70496,-1.42414 -2.14027,-2.30904 -3.7476,-2.30904c-0.72636,0 -1.31561,-0.57954 -1.31561,-1.29702c0,-0.71415 0.58926,-1.29536 1.31561,-1.29536c2.62058,0 4.96353,1.44325 6.1124,3.76559zM25.45614,24.17163c-0.32112,0.3174 -0.74192,0.47402 -1.16306,0.47402c-0.42034,0 -0.84183,-0.15704 -1.16306,-0.47402l-4.33537,-4.27077c-1.89251,1.44699 -4.25983,2.31735 -6.83578,2.31735c-6.16608,0 -11.18179,-4.94254 -11.18179,-11.01592c0,-6.07421 5.01572,-11.01675 11.18179,-11.01675c6.16608,0 11.18179,4.94254 11.18179,11.01675c0,2.37011 -0.77053,4.56199 -2.06806,6.36087l4.38354,4.31813c0.64224,0.63272 0.64224,1.65887 0,2.29034zM11.95966,19.62708c2.10457,0 4.03061,-0.75652 5.52166,-2.00327c0.45982,-0.38429 0.8741,-0.81843 1.24294,-1.28829c1.1158,-1.42207 1.78596,-3.201 1.78596,-5.13323c0,-4.64508 -3.83606,-8.42438 -8.55057,-8.42438c-4.71474,0 -8.55091,3.7793 -8.55091,8.42438c0,4.64467 3.83583,8.42355 8.55091,8.4248z" fill="#000000" fill-opacity="1"></path><path d="M17.41655,7.84716c0.31849,0.64352 0.04715,1.41957 -0.60619,1.73365c-0.18562,0.08766 -0.38177,0.13045 -0.57587,0.13045c-0.48729,0 -0.9549,-0.26713 -1.18275,-0.72827c-0.70496,-1.42414 -2.14027,-2.30904 -3.7476,-2.30904c-0.72636,0 -1.31561,-0.57954 -1.31561,-1.29702c0,-0.71415 0.58926,-1.29536 1.31561,-1.29536c2.62058,0 4.96353,1.44325 6.1124,3.76559zM25.45614,24.17163c-0.32112,0.3174 -0.74192,0.47402 -1.16306,0.47402c-0.42034,0 -0.84183,-0.15704 -1.16306,-0.47402l-4.33537,-4.27077c-1.89251,1.44699 -4.25983,2.31735 -6.83578,2.31735c-6.16608,0 -11.18179,-4.94254 -11.18179,-11.01592c0,-6.07421 5.01572,-11.01675 11.18179,-11.01675c6.16608,0 11.18179,4.94254 11.18179,11.01675c0,2.37011 -0.77053,4.56199 -2.06806,6.36087l4.38354,4.31813c0.64224,0.63272 0.64224,1.65887 0,2.29034zM11.95966,19.62708c2.10457,0 4.03061,-0.75652 5.52166,-2.00327c0.45982,-0.38429 0.8741,-0.81843 1.24294,-1.28829c1.1158,-1.42207 1.78596,-3.201 1.78596,-5.13323c0,-4.64508 -3.83606,-8.42438 -8.55057,-8.42438c-4.71474,0 -8.55091,3.7793 -8.55091,8.42438c0,4.64467 3.83583,8.42355 8.55091,8.4248z" fill="#ffffff" fill-opacity="1"></path></g></g></svg>